# xmcd
#
# Track frame offsets:
# 150
# 14394
# 32833
# 52830
# 72205
# 89632
# 105464
# 129606
# 148048
# 171427
# 191017
#
# Disc length: 2839 seconds
#
# Revision: 0
# Processed by: cddbd v1.4PL0 Copyright (c) Steve Scherf et al.
# Submitted via: Audion 2.5.0 (http://www.panic.com/audion/)
#
DISCID=9a0b150b
DTITLE=John Russo - Two Weeks From Tuesday
DYEAR=1900
DGENRE=
TTITLE0=Now That You're Gone
TTITLE1=Why Won't You Be Mine
TTITLE2=She Says She Loves Me
TTITLE3=Give This Love A Chance
TTITLE4=Two Weeks From Tuesday
TTITLE5=Who Do You Think You Are
TTITLE6=More Than A Friend
TTITLE7=Special One
TTITLE8=Sadness
TTITLE9=You Keep Me Up All Night
TTITLE10=Your Light Shines On Me
EXTD=
EXTT0=
EXTT1=
EXTT2=
EXTT3=
EXTT4=
EXTT5=
EXTT6=
EXTT7=
EXTT8=
EXTT9=
EXTT10=
PLAYORDER=
